#N canvas 30 54 572 424 10;
#N canvas 51 198 774 384 Lulaby 0;
#N canvas 124 97 899 502 VOZ1 0;
#X obj 216 72 qlist;
#X msg 200 421 next;
#X obj 216 148 unpack f f f f f f;
#X floatatom 188 186 5 0 0 0 - - -;
#X floatatom 234 186 5 0 0 0 - - -;
#X floatatom 297 188 5 0 0 0 - - -;
#X floatatom 338 190 5 0 0 0 - - -;
#X obj 200 392 delay 100;
#X obj 200 361 t b f;
#X obj 395 480 *~;
#X obj 299 248 mtof;
#X obj 560 364 vline~;
#X msg 351 45 rewind \, next;
#X obj 200 272 -;
#X obj 200 247 f;
#X obj 188 216 t b f;
#X floatatom 240 324 5 0 0 0 - - -;
#X obj 200 326 * 6;
#X obj 351 16 inlet;
#X obj 215 298 r velocidade;
#X obj 216 38 r qlistV1;
#X obj 200 447 s qlistV1;
#X obj 351 68 s qlistV1;
#X msg 561 104 print;
#X msg 499 109 rewind;
#X obj 243 114 outlet;
#X obj 125 183 sel 96;
#X obj 119 220 s sync;
#X obj 64 236 outlet;
#X obj 372 334 * 2;
#X obj 372 365 osc~;
#X obj 320 335 osc~;
#X obj 483 144 s qlistV1;
#X msg 460 39 read lulaby_p1.txt;
#X obj 395 564 throw~ ToMaster;
#X floatatom 458 514 5 0 0 0 - - -;
#X obj 296 112 s Track1Fim;
#X obj 316 367 *~ 0.5;
#X obj 395 508 hip~ 70;
#X obj 394 542 *~ 0.3;
#X obj 372 396 *~ 0.056;
#X obj 535 415 *~;
#X obj 465 364 osc~;
#X obj 465 333 * 1.5;
#X obj 465 395 *~ 0.04;
#X msg 560 338 1 5 \, 0 1000 20;
#X obj 299 226 t f f b;
#X obj 411 364 + 0.05;
#X obj 577 173 max 60;
#X obj 593 197 - 60;
#X obj 595 223 / 12;
#X obj 592 254 *;
#X obj 504 355 + 0.04;
#X obj 525 287 * 0.1;
#X obj 458 270 * 0.25;
#X connect 0 0 2 0;
#X connect 0 1 25 0;
#X connect 0 1 36 0;
#X connect 1 0 21 0;
#X connect 2 0 3 0;
#X connect 2 0 26 0;
#X connect 2 0 28 0;
#X connect 2 1 4 0;
#X connect 2 4 5 0;
#X connect 2 5 6 0;
#X connect 3 0 15 0;
#X connect 4 0 14 1;
#X connect 5 0 46 0;
#X connect 7 0 1 0;
#X connect 8 0 7 0;
#X connect 8 1 7 1;
#X connect 9 0 38 0;
#X connect 10 0 29 0;
#X connect 10 0 31 0;
#X connect 10 0 43 0;
#X connect 11 0 41 1;
#X connect 11 0 41 0;
#X connect 12 0 22 0;
#X connect 13 0 17 0;
#X connect 14 0 13 0;
#X connect 15 0 14 0;
#X connect 15 1 13 1;
#X connect 16 0 17 1;
#X connect 17 0 8 0;
#X connect 18 0 12 0;
#X connect 19 0 17 1;
#X connect 20 0 0 0;
#X connect 23 0 32 0;
#X connect 24 0 32 0;
#X connect 26 0 27 0;
#X connect 29 0 30 0;
#X connect 30 0 40 0;
#X connect 31 0 37 0;
#X connect 33 0 32 0;
#X connect 35 0 39 1;
#X connect 37 0 9 0;
#X connect 38 0 39 0;
#X connect 39 0 34 0;
#X connect 40 0 9 0;
#X connect 41 0 9 1;
#X connect 42 0 44 0;
#X connect 43 0 42 0;
#X connect 44 0 9 0;
#X connect 45 0 11 0;
#X connect 46 0 10 0;
#X connect 46 1 48 0;
#X connect 46 2 45 0;
#X connect 47 0 40 1;
#X connect 48 0 49 0;
#X connect 49 0 50 0;
#X connect 50 0 51 0;
#X connect 50 0 51 1;
#X connect 51 0 53 0;
#X connect 51 0 54 0;
#X connect 52 0 44 1;
#X connect 53 0 52 0;
#X connect 54 0 47 0;
#X restore 71 44 pd VOZ1;
#N canvas 30 128 941 463 VOZ2 0;
#X obj 216 95 qlist;
#X obj 216 148 unpack f f f f f f;
#X floatatom 262 175 5 0 0 0 - - -;
#X floatatom 253 195 5 0 0 0 - - -;
#X obj 129 393 delay 100;
#X obj 323 379 osc~;
#X obj 323 407 *~;
#X obj 323 358 mtof;
#X obj 375 349 vline~;
#X obj 141 282 -;
#X obj 141 250 f;
#X obj 141 219 t b f;
#X floatatom 182 339 5 0 0 0 - - -;
#X obj 141 344 * 6;
#X obj 156 310 r velocidade;
#X obj 216 43 r qlistV2;
#X obj 114 236 ==;
#X obj 495 -12 + 1;
#X obj 466 -10 f;
#X msg 495 -37 0;
#X obj 495 14 - 1;
#X obj 323 268 f;
#X obj 520 366 osc~;
#X obj 519 425 *~;
#X obj 520 337 mtof;
#X obj 553 361 vline~;
#X obj 520 286 f;
#X obj 662 372 osc~;
#X obj 690 416 *~;
#X obj 662 348 mtof;
#X obj 704 369 vline~;
#X obj 662 279 f;
#X obj 300 218 s V2Pitch;
#X obj 547 152 r V2Pitch;
#X obj 114 195 t f f;
#X obj 19 280 sel 0 1;
#X obj 19 367 s V2Mono;
#X obj 466 -95 r V2Poly;
#X obj 495 -63 r V2Mono;
#X obj 690 494 throw~ V2;
#X obj 793 -80 catch~ V2;
#X obj 243 123 outlet;
#X obj 96 -171 r sync;
#N canvas 517 54 450 300 List2 0;
#X obj 113 79 qlist;
#X obj 113 161 unpack f f f f f f;
#X floatatom 165 220 5 0 0 0 - - -;
#X floatatom 211 220 5 0 0 0 - - -;
#X floatatom 274 222 5 0 0 0 - - -;
#X floatatom 315 224 5 0 0 0 - - -;
#X msg 208 30 rewind;
#X obj 113 -2 r qlistV22;
#X msg 218 60 rewind \, next \, next;
#X obj 91 255 outlet;
#X connect 0 0 1 0;
#X connect 1 0 2 0;
#X connect 1 0 9 0;
#X connect 1 1 3 0;
#X connect 1 4 4 0;
#X connect 1 5 5 0;
#X connect 6 0 0 0;
#X connect 7 0 0 0;
#X connect 8 0 0 0;
#X restore 149 145 pd List2;
#X msg 80 -126 \; qlistV22 rewind \; qlistV22 next \; qlistV22 next
\; qlistV2 rewind \; qlistV2 next;
#X obj 216 223 outlet;
#X msg 266 -142 \; qlistV2 rewind \; qlistV2 next;
#X msg 259 73 next;
#X floatatom 825 -45 5 0 0 0 - - -;
#X obj 495 77 sel 0 1 2;
#X obj 793 68 throw~ ToMaster;
#X obj 1201 113 bng 15 250 50 0 empty empty empty 17 7 0 10 -262144
-1 -1;
#X obj 323 295 t f b f;
#X obj 520 313 t f b f;
#X obj 662 306 t f b f;
#X obj 495 36 t f f;
#X obj 645 104 t f f f f;
#X obj 662 159 == 1;
#X obj 547 214 spigot;
#X obj 594 215 spigot;
#X obj 646 212 spigot;
#X obj 547 176 t f f f;
#X obj 645 180 == 0;
#X obj 679 132 == 2;
#X obj 315 171 r transpose;
#X obj 61 60 s transpose;
#X floatatom 61 37 5 0 0 0 - - -;
#X obj 300 194 + 0;
#X msg 38 305 \; V2Poly bang \; qlistV22 next \; qlistV2 next \;;
#X msg 129 416 \; qlistV22 next \; qlistV2 next \;;
#X obj 141 367 t b f;
#X obj 793 13 hip~ 200;
#X obj 691 463 *~ 0.3;
#X obj 691 438 hip~ 80;
#X obj 518 505 throw~ V2;
#X obj 519 474 *~ 0.3;
#X obj 519 449 hip~ 80;
#X obj 321 486 throw~ V2;
#X obj 322 455 *~ 0.3;
#X obj 322 430 hip~ 80;
#X obj 61 -15 loadbang;
#X msg 61 11 12;
#X obj 792 -19 *~ 0.9;
#X obj 792 38 clip~ -1 1;
#X floatatom 533 243 5 0 0 0 - - -;
#X floatatom 592 252 5 0 0 0 - - -;
#X floatatom 678 246 5 0 0 0 - - -;
#X obj 481 219 bng 15 250 50 0 empty empty empty 17 7 0 10 -262144
-1 -1;
#X obj 639 272 bng 15 250 50 0 empty empty empty 17 7 0 10 -262144
-1 -1;
#X obj 722 236 bng 15 250 50 0 empty empty empty 17 7 0 10 -262144
-1 -1;
#X obj 705 394 *~;
#X obj 545 398 *~;
#X obj 375 378 *~;
#X msg 375 323 1 5 \, 0 1000 200;
#X msg 553 341 1 5 \, 0 1000 200;
#X msg 704 339 1 5 \, 0 1000 200;
#X connect 0 0 1 0;
#X connect 0 1 41 0;
#X connect 1 0 2 0;
#X connect 1 0 34 0;
#X connect 1 0 45 0;
#X connect 1 1 3 0;
#X connect 1 4 67 0;
#X connect 4 0 69 0;
#X connect 5 0 6 0;
#X connect 6 0 79 0;
#X connect 7 0 5 0;
#X connect 8 0 92 0;
#X connect 8 0 92 1;
#X connect 9 0 13 0;
#X connect 10 0 9 0;
#X connect 11 0 10 0;
#X connect 11 1 9 1;
#X connect 12 0 13 1;
#X connect 13 0 70 0;
#X connect 14 0 13 1;
#X connect 15 0 0 0;
#X connect 16 0 35 0;
#X connect 17 0 18 1;
#X connect 17 0 20 0;
#X connect 18 0 17 0;
#X connect 19 0 17 0;
#X connect 20 0 55 0;
#X connect 21 0 52 0;
#X connect 22 0 23 0;
#X connect 23 0 76 0;
#X connect 24 0 22 0;
#X connect 25 0 91 0;
#X connect 25 0 91 1;
#X connect 26 0 53 0;
#X connect 27 0 28 0;
#X connect 28 0 73 0;
#X connect 29 0 27 0;
#X connect 30 0 90 0;
#X connect 30 0 90 1;
#X connect 31 0 54 0;
#X connect 33 0 61 0;
#X connect 34 0 16 0;
#X connect 34 1 11 0;
#X connect 35 0 36 0;
#X connect 35 1 68 0;
#X connect 37 0 18 0;
#X connect 38 0 19 0;
#X connect 40 0 82 0;
#X connect 42 0 44 0;
#X connect 43 0 16 1;
#X connect 43 0 10 1;
#X connect 47 0 0 0;
#X connect 48 0 82 1;
#X connect 49 0 21 0;
#X connect 49 1 26 0;
#X connect 49 2 31 0;
#X connect 52 0 7 0;
#X connect 52 1 93 0;
#X connect 53 0 24 0;
#X connect 53 1 94 0;
#X connect 54 0 29 0;
#X connect 54 1 95 0;
#X connect 55 0 49 0;
#X connect 55 1 56 0;
#X connect 56 0 62 0;
#X connect 56 1 57 0;
#X connect 56 2 63 0;
#X connect 57 0 59 1;
#X connect 58 0 21 1;
#X connect 58 0 84 0;
#X connect 58 0 87 0;
#X connect 59 0 26 1;
#X connect 59 0 85 0;
#X connect 59 0 88 0;
#X connect 60 0 31 1;
#X connect 60 0 86 0;
#X connect 60 0 89 0;
#X connect 61 0 58 0;
#X connect 61 1 59 0;
#X connect 61 2 60 0;
#X connect 62 0 58 1;
#X connect 63 0 60 1;
#X connect 64 0 67 1;
#X connect 66 0 65 0;
#X connect 67 0 32 0;
#X connect 70 0 4 0;
#X connect 70 1 4 1;
#X connect 71 0 83 0;
#X connect 72 0 39 0;
#X connect 73 0 72 0;
#X connect 75 0 74 0;
#X connect 76 0 75 0;
#X connect 78 0 77 0;
#X connect 79 0 78 0;
#X connect 80 0 81 0;
#X connect 81 0 66 0;
#X connect 82 0 71 0;
#X connect 83 0 50 0;
#X connect 90 0 28 1;
#X connect 91 0 23 1;
#X connect 92 0 6 1;
#X connect 93 0 8 0;
#X connect 94 0 25 0;
#X connect 95 0 30 0;
#X restore 146 43 pd VOZ2;
#X obj 71 7 bng 15 250 50 0 empty empty empty 17 7 0 10 -262144 -1
-1;
#X floatatom 57 167 5 0 0 0 - - -;
#X obj 56 200 s velocidade;
#X obj 185 79 bng 15 250 50 0 empty empty empty 17 7 0 10 -262144 -1
-1;
#X obj 65 82 bng 15 250 50 0 empty empty empty 17 7 0 10 -262144 -1
-1;
#X floatatom 56 125 5 0 0 0 - - -;
#X floatatom 40 101 5 0 0 0 - - -;
#X obj 565 24 loadbang;
#X obj -13 328 catch~ ToMaster;
#X obj 18 421 dac~;
#X floatatom 83 265 0 0 120 0 - - -;
#X text 124 265 level \, dB;
#X floatatom 127 289 0 0 100 0 - - -;
#X text 168 289 liveness \, 0-100;
#X floatatom 171 315 0 0 120 0 - - -;
#X floatatom 215 339 0 0 120 0 - - -;
#X text 202 315 crossover frequency \, Hz.;
#X text 248 340 HF damping \, percent;
#X msg 565 56 \; pd dsp 1 \; qlistV1 read lulaby_p1.txt \; qlistV2
read lulaby_p2.txt \; qlistV22 read lulaby_p2.txt \; qlistV1 rewind
\; qlistV1 next \; qlistV22 rewind \; qlistV22 next \; qlistV22 next
\; qlistV2 rewind \;;
#X obj 239 4 r Track1Fim;
#X obj 394 54 r velocidade;
#X obj 379 92 f 6;
#X obj 379 164 s velocidade;
#X obj 239 30 t b b;
#X msg 239 98 \; qlistV1 rewind \; qlistV1 next \; qlistV22 rewind
\; qlistV22 next \; qlistV22 next \; qlistV2 rewind \;;
#X floatatom 414 142 5 0 0 0 - - -;
#X obj 379 115 + 0.5;
#X obj 401 190 s velocidade-r;
#X obj 40 371 rev2~ 87 87 4500 20;
#X connect 0 0 8 0;
#X connect 0 1 6 0;
#X connect 1 0 7 0;
#X connect 1 1 5 0;
#X connect 2 0 0 0;
#X connect 3 0 4 0;
#X connect 9 0 20 0;
#X connect 10 0 11 0;
#X connect 10 0 11 1;
#X connect 10 0 30 0;
#X connect 12 0 30 1;
#X connect 14 0 30 2;
#X connect 16 0 30 3;
#X connect 17 0 30 4;
#X connect 21 0 25 0;
#X connect 22 0 23 1;
#X connect 23 0 28 0;
#X connect 25 0 26 0;
#X connect 25 1 23 0;
#X connect 28 0 27 0;
#X connect 28 0 24 0;
#X connect 28 0 29 0;
#X connect 30 0 11 0;
#X connect 30 1 11 1;
#X restore 210 225 pd Lulaby;
#X obj 16 47 numberbox 64 32 velocidade-r velocidade 1 300 6;
#X text 18 348 X - 6 Jan 2014;
