#N canvas 5 77 481 521 10;
#X obj 184 382 *~;
#X obj 88 60 mtof;
#X obj 161 236 * 2;
#X obj 161 267 osc~;
#X obj 109 237 osc~;
#X obj 105 269 *~ 0.5;
#X obj 161 298 *~ 0.056;
#X obj 254 266 osc~;
#X obj 254 235 * 1.5;
#X obj 254 297 *~ 0.04;
#X obj 200 266 + 0.05;
#X obj 295 100 max 60;
#X obj 295 122 - 60;
#X obj 295 143 / 12;
#X obj 295 168 *;
#X obj 293 257 + 0.04;
#X obj 295 203 * 0.1;
#X obj 228 186 * 0.25;
#X obj 369 18 inlet~ Amplitude;
#X obj 88 38 t f f;
#X obj 88 -10 inlet Frequency;
#X obj 167 457 outlet~ Sound;
#X connect 0 0 21 0;
#X connect 1 0 2 0;
#X connect 1 0 4 0;
#X connect 1 0 8 0;
#X connect 2 0 3 0;
#X connect 3 0 6 0;
#X connect 4 0 5 0;
#X connect 5 0 0 0;
#X connect 6 0 0 0;
#X connect 7 0 9 0;
#X connect 8 0 7 0;
#X connect 9 0 0 0;
#X connect 10 0 6 1;
#X connect 11 0 12 0;
#X connect 12 0 13 0;
#X connect 13 0 14 0;
#X connect 13 0 14 1;
#X connect 14 0 16 0;
#X connect 14 0 17 0;
#X connect 15 0 9 1;
#X connect 16 0 15 0;
#X connect 17 0 10 0;
#X connect 18 0 0 1;
#X connect 19 0 1 0;
#X connect 19 1 11 0;
#X connect 20 0 19 0;
